Coordinates
version=1
nRows=8
nColumns=34
inDegrees=yes

Units are S.I. units (second, meters, Newtons, ...)
If the header above contains a line with 'inDegrees', this indicates whether rotational values are in degrees (yes) or radians (no).

endheader
time	pelvis_tilt	pelvis_list	pelvis_rotation	pelvis_tx	pelvis_ty	pelvis_tz	hip_flexion_r	hip_adduction_r	hip_rotation_r	knee_angle_r	ankle_angle_r	subtalar_angle_r	mtp_angle_r	hip_flexion_l	hip_adduction_l	hip_rotation_l	knee_angle_l	ankle_angle_l	subtalar_angle_l	mtp_angle_l	lumbar_extension	lumbar_bending	lumbar_rotation	arm_flex_r	arm_add_r	arm_rot_r	elbow_flex_r	pro_sup_r	arm_flex_l	arm_add_l	arm_rot_l	elbow_flex_l	pro_sup_l
      1.28333330	     -7.51655521	      1.83832943	     -4.71743879	      0.01350052	      1.20335989	     -0.06118144	      5.27187786	     -0.87690208	      0.37705348	      4.15199825	     17.48122334	     -0.70903330	      0.00000000	      4.74493080	      0.09261948	    -12.72465108	      6.40300433	     17.60476505	      5.60364144	      0.00000000	      1.71845725	     -0.69998970	      0.76102396	      3.13606085	    -11.61031939	     17.18495498	     21.11205852	     72.47011930	     -3.79061275	    -13.37739075	     18.59787249	     28.01187972	     71.75909255
      1.30000000	     -7.44273417	      1.89767687	     -4.73834867	      0.01379142	      1.20252397	     -0.06027900	      5.26545894	     -0.92835910	      0.09050914	      4.45546099	     17.49540211	     -0.90633858	      0.00000000	      4.79920871	      0.11875998	    -12.89366150	      6.60074660	     17.70253483	      5.44727244	      0.00000000	      1.44008783	     -0.79134512	      0.84897501	      2.67463653	    -12.03275618	     17.11716870	     20.87025108	     72.43892977	     -4.47022554	    -13.80921605	     18.55153173	     27.66440689	     71.74948917
      1.31666670	     -7.35658641	      2.07164874	     -4.84278955	      0.01121724	      1.20434048	     -0.06001819	      5.42226847	     -1.08928697	     -0.38817404	      5.14569335	     17.64732413	     -1.34077592	      0.00000000	      4.94862519	      0.24497830	    -13.07931291	      6.84110665	     18.08871593	      5.16774750	      0.00000000	      1.42726496	     -1.08245799	      0.80787821	      2.22842732	    -12.43368141	     16.91669064	     20.61783468	     72.33378928	     -5.07601279	    -14.39417225	     18.35399367	     27.19981524	     71.71936593
      1.33333330	     -7.61945654	      2.28377010	     -4.83130224	      0.01282931	      1.20392896	     -0.05876852	      5.93740339	     -1.22387233	     -0.53039617	      5.74043664	     18.03237994	     -1.79175123	      0.00000000	      5.46444119	      0.39661293	    -13.00213744	      7.11098847	     18.44277380	      5.05230077	      0.00000000	      1.46664969	     -1.48672066	      0.67041518	      1.72329470	    -12.76435310	     16.46198250	     20.27743403	     72.09409638	     -5.88514147	    -15.00899777	     17.91821242	     26.54542517	     71.65186297
      1.35000000	     -8.17991121	      2.40041997	     -4.86871053	      0.01440881	      1.20060996	     -0.05855293	      6.73611414	     -1.24553018	     -0.57262835	      6.31708913	     18.03348945	     -2.24427611	      0.00000000	      6.34336585	      0.37833989	    -12.95062970	      7.61592078	     18.69031506	      5.08947537	      0.00000000	      2.23473011	     -1.55575277	      0.40947622	      1.11620791	    -13.21196810	     15.15494405	     19.68820974	     71.42235839	     -7.17576265	    -15.45962702	     16.67212056	     25.80521062	     71.46700957
      1.36666670	     -8.11227877	      2.43634131	     -4.90674298	      0.01311356	      1.20451641	     -0.05770205	      6.76011579	     -1.20556460	     -0.64442555	      6.57769480	     18.07415332	     -2.31725151	      0.00000000	      6.35027895	      0.37661412	    -12.92727898	      7.82332264	     18.74021430	      5.05064195	      0.00000000	      1.86475777	     -1.68748230	      0.50512131	      0.51897490	    -14.00741932	     15.01122556	     19.32060615	     71.37112561	     -8.02801880	    -16.28818131	     16.51824789	     25.38410977	     71.44266723
      1.38333330	     -8.71743789	      2.62116675	     -4.98926826	      0.01255011	      1.20293508	     -0.05658539	      7.82557770	     -1.27870112	     -0.59915572	      7.24733736	     18.58174253	     -2.57285393	      0.00000000	      7.21277564	      0.41914845	    -12.83592098	      8.28979381	     19.04266867	      4.86855330	      0.00000000	      2.46950383	     -1.94839189	      0.49051474	     -0.12864441	    -14.51919756	     13.36014899	     18.42430064	     70.54647772	     -9.44105223	    -17.07064723	     14.67796701	     25.19447237	     71.20081875
      1.40000000	     -8.63887732	      2.66985779	     -5.07128231	      0.01576327	      1.20832771	     -0.05679596	      7.82338140	     -1.30141782	     -0.69983523	      7.44300807	     18.48744845	     -2.63890848	      0.00000000	      7.11215905	      0.44696417	    -12.73130655	      8.41126851	     19.15293353	      4.87889281	      0.00000000	      2.13301293	     -2.06585396	      0.51356484	     -0.93335823	    -15.47313739	     13.14749355	     17.97726975	     70.46692554	    -10.55518763	    -17.99043339	     14.45398250	     24.68535547	     71.17307260
